<?xml version="1.0" standalone="no"?>
<!DOCTYPE svg PUBLIC "-//W3C//DTD SVG 20010904//EN"
 "http://www.w3.org/TR/2001/REC-SVG-20010904/DTD/svg10.dtd">
<svg version="1.0" xmlns="http://www.w3.org/2000/svg"
 width="469.000000pt" height="532.000000pt" viewBox="0 0 469.000000 532.000000"
 preserveAspectRatio="xMidYMid meet">
<metadata>
Created by potrace 1.16, written by Peter Selinger 2001-2019
</metadata>
<g transform="translate(0.000000,532.000000) scale(0.100000,-0.100000)"
fill="#000000" stroke="none">
<path d="M3458 5303 c-12 -15 -62 -96 -78 -128 -27 -54 -74 -125 -82 -125 -6
0 -7 -8 -4 -17 4 -10 4 -14 0 -10 -10 10 -37 -31 -29 -43 4 -6 1 -9 -6 -8 -6
2 -14 -3 -17 -11 -3 -9 0 -11 8 -6 9 5 11 4 6 -4 -4 -6 -11 -9 -16 -6 -5 3
-16 -7 -25 -22 -9 -15 -24 -41 -35 -58 -11 -16 -23 -37 -26 -45 -4 -8 -13 -22
-19 -30 -7 -8 -24 -35 -37 -60 -14 -25 -39 -68 -55 -96 -90 -151 -212 -389
-180 -350 16 20 26 25 31 18 9 -16 -2 -34 -16 -26 -6 4 -8 2 -5 -4 9 -14 -3
-43 -14 -36 -5 3 -6 -1 -3 -9 3 -8 1 -18 -4 -21 -12 -7 -24 21 -16 37 3 7 -2
3 -11 -8 -9 -11 -31 -49 -48 -85 -30 -65 -51 -89 -74 -90 -18 0 -16 28 5 58
88 131 93 190 27 316 -36 69 -45 97 -45 137 0 36 -4 49 -12 47 -16 -6 -23
-124 -10 -171 13 -47 -1 -84 -51 -133 -65 -63 -81 -103 -74 -183 3 -36 13 -81
22 -99 30 -58 0 -171 -47 -180 -11 -2 -15 9 -17 50 -1 29 -4 61 -7 71 -10 31
-24 18 -24 -24 0 -33 -6 -45 -31 -67 -40 -33 -59 -78 -59 -141 0 -27 -3 -56
-6 -65 -9 -22 -37 -20 -60 5 -17 19 -19 35 -16 160 3 136 2 139 -27 196 -16
33 -45 78 -65 101 -19 23 -38 51 -41 62 -4 11 -10 20 -15 20 -20 0 -20 -24 1
-74 34 -84 12 -152 -44 -131 -21 9 -41 62 -40 105 1 31 0 32 -4 5 -2 -16 -9
-34 -14 -40 -10 -10 -8 4 17 130 8 39 15 86 16 105 1 26 3 21 8 -20 l7 -55 1
63 c1 35 -3 73 -10 85 -6 12 -14 36 -17 52 -5 21 -17 35 -41 47 -19 10 -36 16
-38 13 -2 -2 6 -19 19 -37 16 -23 18 -29 6 -19 -25 20 -39 49 -31 63 5 7 9 31
10 53 1 22 9 55 18 73 23 44 32 127 16 137 -16 10 -28 -10 -36 -62 -3 -23 -21
-65 -40 -93 -64 -97 -71 -176 -23 -266 34 -63 52 -114 41 -114 -4 0 -15 17
-25 38 -18 38 -68 128 -94 170 -10 17 -18 20 -27 13 -8 -7 -12 -5 -13 10 -1
12 3 17 9 13 6 -4 -2 16 -18 45 -16 28 -33 49 -39 48 -11 -4 -34 22 -34 38 0
6 6 1 14 -9 25 -33 16 -4 -11 39 -23 36 -26 33 -9 -8 4 -8 -1 -14 -10 -14 -8
0 -14 5 -12 11 5 13 -24 66 -36 66 -4 0 -6 4 -2 9 3 5 1 12 -5 16 -5 3 -10 13
-10 21 0 8 5 12 10 9 6 -4 -3 16 -20 44 -39 63 -52 68 -16 6 15 -25 22 -45 16
-45 -5 0 -10 6 -10 13 0 8 -3 8 -9 -2 -13 -21 3 -56 25 -54 11 1 14 0 7 -3 -7
-3 -9 -12 -6 -20 3 -7 10 -11 17 -7 6 3 8 3 4 -2 -8 -9 31 -85 44 -85 4 0 7
-3 6 -7 -4 -14 48 -93 56 -86 4 5 7 4 6 -2 -1 -5 -2 -17 -1 -25 1 -13 3 -13
12 0 10 13 10 13 6 0 -7 -23 7 -53 27 -56 13 -2 15 3 11 19 -5 19 -4 19 10 -3
18 -29 45 -90 45 -99 -1 -3 -11 12 -23 34 -12 22 -28 41 -34 43 -18 3 -17 -1
14 -58 20 -37 30 -47 39 -39 13 10 32 -7 20 -18 -3 -4 -6 0 -6 7 0 11 -3 11
-11 3 -9 -9 -4 -26 20 -68 18 -32 31 -59 29 -60 -4 -4 -119 188 -130 217 -5
11 -13 16 -19 12 -8 -5 -9 -3 -5 5 5 8 -14 46 -48 97 -31 46 -56 86 -56 90 0
3 -46 78 -102 167 -55 89 -124 200 -153 247 -28 47 -68 111 -89 143 -20 31
-35 57 -32 57 6 0 93 -125 113 -163 9 -18 18 -26 20 -19 3 6 9 10 14 7 5 -4 6
1 3 9 -3 9 -10 13 -15 10 -5 -3 -8 -2 -7 3 5 14 -58 116 -97 156 -22 25 -41
37 -51 33 -8 -3 -12 -2 -9 3 11 18 -13 21 -48 6 -20 -8 -41 -23 -46 -32 -6
-10 -11 -13 -11 -7 0 15 39 54 55 54 8 0 16 4 19 9 6 10 -33 3 -49 -9 -5 -4
-22 -10 -37 -14 -27 -6 -55 -42 -43 -54 3 -3 8 4 12 16 3 12 9 22 14 22 12 0
11 -17 -1 -25 -5 -3 -10 -17 -10 -30 0 -13 -4 -26 -9 -29 -5 -3 -3 -21 3 -41
13 -37 33 -64 22 -30 -3 11 -2 26 3 33 5 9 10 -4 14 -35 5 -42 54 -204 87
-288 9 -24 13 -26 21 -15 7 11 8 6 3 -15 -4 -23 -3 -27 5 -15 9 12 10 8 5 -15
-4 -24 -3 -27 6 -15 9 12 10 10 5 -9 -5 -15 -3 -21 3 -17 10 6 26 -23 17 -32
-3 -3 -5 1 -5 8 0 7 -2 11 -5 8 -9 -8 6 -38 16 -32 10 6 11 -7 10 -75 0 -27
12 -72 31 -120 32 -78 56 -116 44 -71 -6 21 -5 22 4 7 9 -14 8 -22 -2 -34 -11
-14 -11 -16 4 -10 15 5 16 2 11 -24 -5 -26 -2 -30 24 -39 23 -9 36 -24 58 -76
47 -108 39 -64 -10 56 -25 62 -44 114 -42 116 4 4 47 -93 117 -261 21 -49 66
-153 100 -230 122 -274 132 -297 127 -301 -2 -3 -14 19 -26 48 -29 70 -52 111
-67 120 -7 5 -10 16 -7 27 3 11 -2 21 -11 24 -9 4 -16 16 -16 27 0 11 -5 20
-11 20 -5 0 -7 5 -4 10 3 6 -1 10 -9 10 -20 0 -31 -19 -17 -33 6 -6 11 -19 11
-28 0 -10 4 -20 9 -23 5 -4 7 4 5 16 -2 13 11 -8 30 -45 19 -37 36 -67 39 -65
3 2 9 -1 14 -6 5 -6 2 -6 -6 -1 -11 6 -13 4 -8 -8 14 -37 -4 -14 -32 41 -17
31 -30 54 -31 51 -1 -14 68 -151 72 -143 3 5 3 3 2 -4 -7 -25 28 -92 47 -92
10 0 25 -12 33 -27 20 -37 20 -25 0 22 -8 20 -13 39 -11 41 3 3 23 -38 47 -91
23 -53 40 -99 37 -102 -3 -2 -8 6 -12 18 -4 12 -16 36 -27 53 l-20 31 6 -28
c6 -27 5 -27 -16 -16 -20 10 -21 9 -8 -2 8 -8 21 -21 29 -29 12 -13 13 -13 7
3 -3 11 -2 16 5 12 5 -4 7 -15 4 -25 -5 -16 17 -36 37 -32 3 1 9 -5 12 -13 12
-31 -50 1 -71 36 -13 23 -13 22 -7 -15 5 -28 4 -37 -5 -32 -6 4 -11 18 -11 31
0 32 -10 55 -23 55 -7 0 -7 -4 1 -12 7 -7 12 -23 12 -38 0 -25 66 -119 84
-120 5 0 -1 12 -15 28 -23 26 -23 26 9 -2 31 -29 42 -43 22 -31 -24 15 -6 -12
26 -39 19 -15 32 -21 28 -13 -3 9 -12 18 -20 21 -8 3 -14 10 -14 16 0 20 54
-30 67 -62 15 -36 16 -38 5 -38 -5 0 -14 10 -21 23 -7 13 -9 15 -6 4 3 -10 5
-31 5 -45 0 -21 3 -24 10 -12 7 12 10 11 16 -5 4 -11 18 -47 30 -79 27 -68 28
-69 14 -61 -13 8 -13 2 1 -28 9 -19 7 -32 -10 -65 -23 -44 -27 -67 -11 -57 6
4 10 -6 10 -24 0 -32 -20 -55 -21 -24 0 16 -1 15 -9 -2 -4 -12 -15 -27 -24
-34 -9 -7 -13 -17 -10 -22 3 -5 -2 -6 -10 -3 -17 7 -21 26 -17 92 4 65 -21 54
-47 -22 -12 -35 -22 -74 -22 -88 0 -32 -27 -68 -51 -68 -27 0 -25 38 6 125 27
77 33 175 13 222 -6 15 -31 55 -53 88 -50 71 -66 116 -62 170 1 30 -2 40 -13
40 -12 0 -16 -15 -18 -67 -2 -56 1 -75 23 -118 50 -99 52 -269 2 -278 -26 -5
-32 25 -13 64 31 65 13 86 -31 37 -46 -53 -57 -84 -58 -163 0 -61 5 -85 27
-131 45 -93 54 -140 38 -201 -27 -109 -72 -137 -63 -40 4 46 1 69 -15 105 -31
70 -48 62 -48 -22 1 -80 -23 -126 -65 -126 -33 0 -35 24 -6 87 32 73 50 156
44 209 -6 57 -35 211 -41 216 -16 16 -26 -18 -26 -87 0 -105 -25 -171 -94
-248 -68 -76 -91 -133 -82 -204 20 -167 19 -212 -3 -259 -23 -49 -53 -69 -102
-69 -68 0 -95 136 -44 222 61 104 69 128 69 233 1 94 -1 104 -31 162 -50 94
-67 95 -52 3 15 -96 -11 -170 -61 -170 -18 0 -20 7 -20 59 0 57 9 95 35 156
28 66 45 128 45 169 0 67 -32 155 -81 227 -25 36 -51 80 -58 97 -13 31 -34 41
-46 23 -3 -5 15 -49 40 -96 38 -74 45 -97 46 -149 2 -75 -7 -99 -61 -162 -23
-27 -52 -60 -63 -74 -40 -47 -87 -153 -87 -197 0 -22 20 -102 45 -176 56 -169
58 -219 14 -303 -17 -33 -38 -67 -47 -77 -22 -25 -55 -18 -66 14 -9 27 -5 36
66 148 53 83 46 174 -21 264 -21 29 -42 61 -47 72 -7 17 -8 16 -12 -11 -2 -19
5 -48 17 -70 21 -38 27 -105 15 -151 -3 -12 -41 -49 -84 -83 -103 -81 -130
-131 -130 -238 0 -76 9 -111 49 -205 52 -120 3 -347 -74 -347 -34 0 -78 56
-71 89 4 14 9 65 13 112 7 101 -3 138 -57 224 -21 33 -48 81 -60 108 -25 53
-38 66 -50 46 -9 -14 -2 -67 10 -84 4 -5 19 -32 34 -58 38 -70 35 -124 -11
-217 -35 -71 -37 -80 -37 -165 1 -77 6 -99 30 -150 15 -33 43 -78 61 -100 19
-22 37 -44 41 -50 4 -5 28 -37 54 -70 56 -73 87 -136 95 -192 5 -38 3 -43 -13
-43 -26 1 -49 20 -71 60 -14 24 -28 36 -46 38 -33 4 -34 -2 -3 -38 13 -16 27
-46 30 -67 14 -72 89 -130 219 -168 32 -9 77 -31 100 -49 39 -30 42 -36 49
-95 7 -63 7 -64 -34 -117 -22 -30 -41 -54 -43 -54 -1 0 -19 14 -40 30 -21 17
-45 30 -55 30 -48 0 -73 -97 -35 -137 39 -41 103 -65 174 -65 36 0 79 5 96 12
16 6 73 47 126 90 54 44 108 84 121 89 13 5 84 12 158 15 123 6 141 10 200 38
102 48 119 58 143 79 58 53 118 98 137 104 31 10 21 40 -13 38 -35 -2 -34 3 6
39 53 48 108 82 178 112 110 45 149 104 149 224 0 57 4 74 25 102 28 38 31 50
12 50 -28 0 -83 -68 -96 -118 -22 -88 -60 -94 -61 -10 0 57 16 87 84 158 94
97 110 133 110 255 0 96 -2 103 -37 169 -60 111 -50 210 29 291 25 26 33 40
25 48 -12 12 -65 -25 -122 -84 -46 -48 -69 -151 -51 -230 17 -71 15 -92 -9
-123 -20 -26 -22 -26 -40 -10 -25 22 -24 74 1 124 25 50 25 100 0 152 l-19 40
53 57 c69 73 73 82 75 171 3 100 4 109 13 104 4 -3 8 2 8 10 0 9 3 16 8 16 4
0 16 16 27 36 18 34 80 97 103 105 6 2 13 14 15 27 2 13 20 34 41 48 33 23 39
24 49 10 7 -8 38 -24 69 -36 31 -11 73 -32 93 -45 39 -27 50 -31 40 -15 -4 6
1 7 11 3 12 -4 14 -8 6 -11 -10 -3 -10 -7 -1 -18 6 -8 15 -12 19 -9 5 3 12 0
16 -6 4 -8 3 -9 -4 -5 -7 4 -12 3 -12 -3 0 -5 5 -13 11 -17 20 -12 49 -88 49
-131 0 -46 13 -81 45 -128 37 -54 49 -83 38 -97 -21 -26 -45 -120 -40 -156 5
-44 -7 -82 -26 -82 -24 0 -40 45 -33 91 4 24 9 78 11 119 5 70 3 80 -27 140
-24 47 -39 66 -55 68 -28 4 -28 -2 -4 -36 34 -50 45 -99 31 -148 -7 -25 -17
-47 -21 -50 -5 -3 -9 -15 -9 -28 0 -12 -5 -27 -11 -33 -6 -6 -11 -41 -10 -77
1 -83 37 -156 128 -256 34 -38 68 -84 76 -102 25 -56 29 -115 11 -154 -16 -32
-15 -37 6 -88 17 -43 19 -59 10 -75 -9 -17 -15 -19 -30 -11 -11 6 -20 12 -20
14 0 1 -5 29 -11 62 -19 104 -74 174 -161 205 -55 19 -71 -1 -26 -32 77 -55
95 -100 74 -190 l-14 -63 41 -79 c45 -85 81 -119 155 -147 87 -33 98 -38 112
-55 8 -10 15 -24 15 -32 0 -33 163 -101 285 -119 53 -7 88 -23 53 -24 -26 0
-41 -19 -23 -30 24 -15 204 -20 304 -9 88 10 108 10 158 -5 106 -31 263 -13
315 36 13 12 34 38 45 56 12 19 36 41 55 49 29 11 33 16 23 28 -14 17 -63 20
-91 5 -25 -14 -25 4 0 46 14 23 37 38 87 58 140 56 174 128 142 302 -10 54 -9
66 5 88 41 63 8 74 -45 16 -28 -29 -38 -51 -43 -87 -11 -83 -14 -93 -34 -93
-27 0 -32 21 -21 98 10 80 18 106 58 192 42 91 58 192 43 261 -7 30 -16 63
-20 74 -5 11 -14 33 -20 48 -17 43 -13 122 9 170 23 50 30 92 14 92 -6 0 -27
-19 -45 -42 -19 -23 -47 -59 -64 -79 -28 -35 -30 -42 -28 -117 2 -90 -8 -127
-35 -127 -27 0 -49 28 -62 80 -9 38 -8 54 10 104 27 80 28 206 0 277 -10 28
-39 77 -63 108 -24 31 -50 67 -57 80 -14 27 -8 97 15 162 24 68 16 163 -12
146 -6 -4 -13 -29 -16 -57 -4 -31 -17 -66 -35 -93 -71 -104 -78 -153 -35 -242
35 -71 27 -89 -44 -93 -45 -3 -53 0 -81 29 -38 39 -46 74 -36 148 4 31 6 60 5
65 -1 5 4 23 12 40 8 17 21 44 28 60 18 38 18 181 0 226 -8 19 -31 53 -52 75
-43 46 -86 122 -95 171 -8 45 11 120 44 170 15 23 39 59 53 80 25 38 59 124
59 151 0 35 -30 6 -58 -57 -21 -46 -53 -93 -100 -143 -94 -102 -107 -131 -106
-237 0 -73 4 -91 27 -130 60 -100 69 -130 57 -180 -30 -124 -119 -181 -186
-119 -35 32 -38 86 -9 144 41 81 27 192 -30 229 -12 8 -25 13 -28 10 -3 -3 -3
-30 0 -59 6 -57 0 -68 -69 -121 -49 -39 -70 -90 -68 -168 4 -96 4 -96 -29 -96
-58 0 -101 76 -101 178 0 63 11 89 72 174 27 36 60 94 74 128 22 54 24 70 18
136 -6 68 -12 84 -65 172 -72 119 -91 194 -66 248 21 42 22 64 3 64 -15 0 -36
-39 -61 -118 -26 -79 -16 -137 40 -222 37 -58 45 -79 45 -117 0 -49 -31 -127
-54 -136 -31 -12 -38 8 -27 79 16 109 -1 161 -83 252 -28 31 -56 42 -56 23 0
-6 9 -25 19 -43 26 -43 40 -133 27 -176 -11 -38 -49 -82 -71 -82 -13 0 -15 11
-13 58 1 31 -4 67 -11 80 -11 20 -10 32 7 75 11 29 28 72 37 97 19 51 36 75
124 174 37 42 61 78 61 92 0 13 4 25 9 28 14 9 24 115 12 129 -7 9 5 43 40
116 27 57 48 109 46 115 -2 6 2 27 8 46 13 36 160 337 151 310 -9 -30 -48
-126 -67 -163 -21 -43 -24 -67 -9 -67 20 0 141 276 255 585 20 55 42 111 48
125 18 42 19 46 4 28 -13 -16 -14 -15 -13 12 1 16 5 30 9 30 5 0 6 4 2 9 -8
14 24 102 48 131 21 26 21 20 2 -35 -4 -12 0 -10 9 5 24 41 64 198 54 208 -6
6 -5 22 0 43 7 23 11 28 12 14 2 -14 4 -11 10 10 4 17 11 39 15 49 6 13 5 17
-2 13 -6 -4 -13 7 -17 25 -4 18 -18 51 -33 73 -24 37 -24 39 -3 20 12 -11 31
-38 41 -60 10 -22 18 -33 18 -24 1 8 -12 36 -29 62 l-30 47 -58 0 c-44 0 -63
-5 -74 -17z m82 -51 c30 -24 30 -73 1 -172 -13 -41 -27 -91 -33 -110 -9 -30
-29 -80 -78 -195 -4 -11 -24 -60 -44 -110 -37 -96 -161 -388 -294 -697 -45
-103 -86 -206 -93 -228 -7 -22 -16 -40 -21 -40 -4 0 -8 -4 -8 -10 0 -5 -13
-39 -30 -75 -33 -72 -35 -79 -19 -69 14 8 3 -29 -18 -66 -11 -19 -13 -20 -10
-5 3 11 8 29 12 40 35 89 -98 -174 -176 -350 -29 -66 -57 -121 -61 -123 -4 -2
-8 -11 -8 -19 0 -8 -11 -36 -24 -62 -13 -25 -50 -100 -82 -166 -32 -66 -64
-126 -71 -133 -7 -7 -13 -20 -13 -27 0 -8 -10 -25 -22 -39 -30 -33 -277 -161
-289 -149 -12 12 -80 241 -81 273 0 27 64 167 163 350 33 63 80 151 103 195
23 44 61 112 83 150 22 39 54 95 70 125 47 85 143 249 180 307 18 29 33 56 33
60 0 4 14 28 31 53 16 25 39 63 50 85 l20 40 -20 -25 c-11 -14 -21 -31 -21
-37 0 -7 -5 -13 -11 -13 -13 0 -14 -4 39 93 44 78 59 95 49 56 -4 -14 -2 -18
4 -12 5 5 11 22 13 38 3 28 42 105 53 105 2 0 1 -6 -2 -12 -4 -7 1 -4 9 6 9
11 16 25 16 30 0 6 -4 5 -9 -2 -7 -11 -9 -11 -14 2 -4 9 -3 15 1 14 11 -3 67
53 87 87 l17 30 -21 -25 c-20 -23 -21 -23 -11 -3 6 13 18 27 28 32 10 5 27 26
37 45 11 20 22 36 26 36 3 0 14 19 24 43 10 23 24 49 31 57 28 35 104 192 98
203 -4 7 -3 9 1 4 9 -8 59 72 50 81 -3 3 -5 -1 -5 -8 0 -7 -3 -11 -6 -8 -8 9
25 70 35 64 11 -7 70 105 64 121 -2 6 1 15 8 19 8 5 10 2 5 -7 -10 -21 13 13
66 97 26 41 51 74 57 74 5 0 19 -8 31 -18z m-2246 -77 c20 -30 36 -57 36 -61
0 -3 13 -24 29 -47 15 -23 39 -63 53 -89 14 -26 39 -66 57 -90 18 -24 70 -101
117 -173 47 -71 90 -132 96 -136 5 -3 10 -10 10 -15 -1 -18 41 -83 50 -78 4 3
8 -4 8 -16 0 -12 4 -18 10 -15 5 3 8 0 5 -7 -5 -11 87 -171 261 -453 24 -38
73 -123 109 -188 36 -65 97 -169 135 -231 65 -108 104 -185 97 -192 -4 -4 -78
112 -126 199 -18 31 -35 57 -37 57 -6 0 57 -116 111 -206 36 -59 41 -79 26
-102 -9 -15 -98 -62 -116 -62 -6 0 -12 -7 -12 -15 0 -17 21 -13 70 12 32 16
34 8 7 -32 -11 -16 -48 -83 -82 -147 -33 -65 -64 -118 -68 -118 -8 0 -30 44
-135 275 -47 105 -92 204 -100 220 -8 17 -41 93 -74 170 -89 211 -129 303
-167 383 -19 40 -34 75 -34 78 0 3 -38 93 -84 202 -105 244 -263 646 -305 771
-28 86 -41 164 -24 147 4 -3 28 -70 54 -149 48 -146 134 -345 145 -334 4 3 -3
22 -14 41 -12 19 -25 50 -30 68 -6 18 -31 92 -56 163 -25 72 -46 140 -46 152
0 12 -7 28 -15 37 -8 8 -15 19 -15 25 0 24 19 8 54 -44z m1383 -2402 c19 -43
40 -106 46 -141 10 -55 9 -70 -7 -110 -10 -26 -20 -56 -23 -68 -6 -26 -41 -48
-56 -36 -7 6 -55 23 -107 40 -52 17 -96 35 -98 41 -4 13 18 14 38 2 8 -6 18
-7 23 -4 5 3 3 9 -4 14 -11 7 -12 12 -1 29 17 27 15 38 -3 14 -17 -22 -20 -12
-4 17 5 11 15 17 21 13 6 -4 8 1 4 14 -5 13 -1 25 11 34 10 7 18 22 18 33 0
13 6 19 18 18 13 -1 17 4 13 14 -8 20 34 104 47 96 6 -4 8 0 4 10 -7 20 1 47
15 47 5 0 25 -35 45 -77z m121 -290 c11 -27 27 -70 37 -98 9 -27 29 -77 44
-110 16 -33 29 -64 31 -70 1 -5 24 -38 51 -72 52 -66 59 -83 34 -83 -8 0 -14
-3 -14 -7 4 -27 -7 -21 -56 27 -44 44 -58 52 -65 41 -6 -11 -3 -18 12 -25 12
-6 24 -18 26 -26 4 -13 3 -13 -11 -2 -17 14 -41 6 -70 -23 -13 -13 -17 -12
-29 8 -7 12 -24 49 -38 82 -13 33 -28 63 -33 66 -5 4 -6 13 -1 20 20 32 8 47
-31 39 -5 -1 -2 7 8 18 17 19 17 19 -8 17 -25 -3 -52 25 -38 39 3 3 -1 6 -11
6 -14 0 -15 4 -6 21 18 33 38 33 66 0 31 -37 81 -66 107 -62 15 2 16 -1 8 -16
-5 -10 -17 -48 -26 -86 -14 -56 -15 -72 -5 -97 13 -32 40 -39 58 -17 15 18 -1
39 -22 31 -14 -5 -15 -9 -5 -15 8 -4 10 -11 7 -14 -12 -13 -28 6 -24 28 3 12
10 51 17 87 7 36 15 67 19 70 4 3 1 19 -6 35 -7 17 -13 24 -14 18 0 -19 -49 3
-81 36 -25 27 -27 33 -18 71 14 64 36 110 52 110 8 0 24 -21 35 -47z m-725
-21 c61 -36 71 -53 65 -118 -2 -32 -7 -40 -26 -42 -38 -6 -83 19 -97 52 -26
62 -30 155 -7 144 4 -2 33 -18 65 -36z m-108 -235 c-8 -12 -15 -31 -15 -42 0
-32 -21 -52 -62 -59 -67 -12 -65 10 16 174 l71 145 3 -98 c2 -75 -1 -103 -13
-120z m-95 -234 c55 -5 90 -21 90 -42 0 -26 -61 -81 -91 -81 -38 0 -59 9 -53
24 3 7 -7 18 -21 24 -21 10 -25 9 -26 -6 0 -11 -2 -12 -6 -4 -3 7 -2 19 1 27
4 11 11 12 35 4 17 -6 36 -9 43 -6 12 4 -25 16 -97 33 -29 6 -29 6 -10 -9 12
-10 15 -16 7 -17 -7 0 -21 -19 -31 -42 -16 -39 -66 -91 -132 -140 l-24 -18 30
11 c16 5 36 16 44 22 12 10 13 9 3 -9 -16 -29 -9 -54 21 -78 66 -53 134 -200
146 -316 8 -74 8 -74 10 -19 0 31 -8 100 -19 153 -28 131 -12 211 30 158 14
-17 18 -55 24 -219 8 -223 20 -327 41 -360 19 -28 19 -39 -2 -102 -13 -41 -20
-51 -39 -51 -12 0 -51 -13 -86 -30 -120 -57 -120 -25 -1 54 46 30 64 71 58
131 -2 17 -4 68 -5 115 l-2 85 -13 -74 c-7 -40 -19 -87 -26 -105 -31 -77 -83
-184 -104 -211 -12 -16 -29 -43 -38 -60 -27 -53 -126 -159 -175 -188 -26 -15
-46 -32 -44 -37 1 -6 -10 -22 -25 -35 l-28 -25 33 11 c22 8 32 17 32 31 0 11
8 22 20 25 11 3 20 10 20 17 0 6 4 5 9 -3 7 -11 10 -9 16 8 3 11 10 21 15 21
4 0 24 16 43 35 19 19 39 35 44 35 4 0 13 10 19 23 6 12 21 41 33 65 22 43 43
57 34 22 -3 -11 -9 -20 -14 -20 -5 0 -9 -5 -9 -11 0 -5 5 -7 10 -4 6 3 10 1
10 -4 0 -6 -3 -11 -8 -11 -4 0 -13 -12 -20 -27 -11 -26 -106 -133 -118 -133
-2 0 -14 -9 -26 -20 -12 -10 -25 -17 -30 -14 -4 3 -8 0 -8 -6 0 -24 -206 -96
-294 -102 -20 -2 -36 -7 -36 -11 0 -4 -9 -3 -20 3 -11 6 -20 18 -20 26 0 10
-6 14 -15 11 -8 -4 -17 -2 -20 3 -4 6 -18 10 -33 10 -18 0 -23 3 -14 8 9 6 -5
21 -46 50 -143 100 -214 215 -235 385 -24 187 24 368 143 542 42 61 204 185
243 185 11 0 17 8 17 25 0 40 33 53 138 53 113 0 178 14 255 55 59 31 155 116
195 174 l22 31 43 -20 c23 -12 62 -23 87 -25z m1367 -73 c47 -15 103 -23 183
-27 121 -5 156 -14 166 -45 4 -13 10 -16 21 -10 18 11 95 -29 166 -86 84 -67
182 -221 223 -349 21 -68 30 -275 15 -370 -23 -145 -55 -219 -137 -314 -86
-98 -215 -145 -360 -128 -131 14 -315 105 -356 176 -11 18 -23 31 -27 29 -4
-3 -12 8 -19 23 -7 16 -29 46 -50 67 -20 21 -36 42 -34 47 1 5 -2 6 -8 2 -5
-3 -10 1 -10 10 0 9 -4 14 -9 11 -5 -3 -23 2 -42 11 -18 9 -45 19 -61 22 -23
5 -34 17 -54 63 l-26 56 31 45 c17 25 36 69 43 99 14 63 17 384 4 477 -6 43
-5 62 1 58 6 -4 11 -1 10 6 -1 38 5 57 18 57 26 0 53 -36 60 -81 4 -24 12 -55
16 -68 9 -23 10 -23 38 15 16 22 43 55 61 74 51 57 52 70 11 98 -90 60 -125
118 -84 140 13 8 31 -1 79 -38 39 -30 88 -56 131 -70z m-2230 70 c-4 -16 -3
-30 2 -30 5 0 11 -13 14 -30 4 -16 17 -40 29 -52 20 -20 23 -21 26 -5 4 20 13
22 31 5 7 -8 39 -13 81 -12 39 0 64 -3 57 -8 -6 -4 -38 -8 -69 -8 -32 0 -58
-4 -58 -9 0 -5 -9 -11 -20 -14 -11 -3 -20 0 -20 5 0 6 -7 5 -16 -3 -14 -11
-19 -10 -34 10 -13 18 -19 21 -23 10 -4 -8 -4 -2 -1 12 7 35 -10 45 -24 14 -8
-16 -8 -26 -1 -31 20 -12 -77 -124 -107 -124 -8 0 -14 -11 -14 -27 -1 -16 -7
-41 -15 -58 -13 -27 -14 -28 -10 -5 2 14 6 37 10 53 3 15 1 27 -4 27 -5 0 -11
-12 -13 -26 -2 -17 -11 -30 -25 -35 -13 -5 -23 -6 -23 -3 0 2 10 9 23 14 22 9
22 9 1 9 -12 1 -27 -6 -34 -14 -21 -25 -29 -17 -36 35 -4 27 -10 47 -15 44 -5
-3 -9 -3 -9 0 0 2 -3 12 -7 22 -5 13 -3 15 7 9 18 -11 70 -14 70 -3 0 4 -13 8
-29 8 -16 0 -39 8 -52 19 -19 15 -21 23 -14 40 l10 21 13 -21 c13 -20 12 -21
-5 -15 -11 5 -14 4 -8 -2 6 -5 31 -17 57 -27 40 -15 54 -16 96 -5 44 10 49 14
45 33 -5 18 -3 20 7 10 11 -10 17 -10 29 0 8 6 2 -5 -13 -25 -26 -35 -41 -43
-73 -39 -7 1 -13 -3 -13 -8 0 -37 68 -4 108 53 17 24 28 46 25 50 -4 3 4 24
16 46 14 25 20 48 16 60 -6 20 2 60 12 60 3 0 3 -13 0 -30z m1988 -32 c7 -9
11 -19 8 -22 -4 -3 3 -6 15 -6 12 0 27 -9 34 -19 6 -10 17 -17 23 -15 6 3 21
-6 34 -20 22 -23 22 -25 6 -49 -20 -32 -41 -40 -65 -27 -16 9 -22 5 -34 -17
-15 -28 -15 -28 -11 17 3 32 -1 53 -16 76 -15 24 -16 33 -7 37 11 4 11 7 0 15
-7 5 -10 17 -6 28 4 13 3 15 -3 6 -13 -17 -29 3 -31 38 l-1 25 20 -25 c11 -14
26 -32 34 -42z m-1127 -133 c17 -16 6 -99 -15 -120 -8 -8 -12 -15 -8 -15 3 0
3 -5 -1 -12 -5 -8 -14 2 -26 27 -9 22 -18 33 -18 24 0 -9 -15 -28 -34 -42 -32
-25 -46 -26 -46 -3 0 6 5 4 11 -4 7 -11 8 -1 4 35 -6 53 13 118 37 128 20 8
81 -4 96 -18z m-894 -1342 l15 -28 1 30 c1 29 2 29 15 -10 7 -22 13 -36 14
-31 1 6 8 1 16 -10 14 -19 14 -19 15 3 0 12 5 25 10 28 6 4 9 1 8 -7 -3 -12 1
-13 33 -5 6 1 14 -4 17 -12 3 -8 0 -11 -7 -7 -7 4 -11 0 -11 -12 0 -10 -10
-29 -22 -42 -20 -21 -23 -22 -26 -7 -6 30 -17 18 -18 -18 0 -33 -34 -88 -34
-57 0 7 -11 2 -25 -12 -14 -14 -25 -29 -25 -34 0 -5 -6 -15 -14 -21 -11 -9
-13 -6 -10 16 3 24 2 23 -7 -5 -15 -51 -91 -79 -124 -46 -11 12 -19 13 -28 5
-22 -18 -81 18 -85 52 -4 34 21 46 47 23 25 -23 71 -20 113 9 54 37 80 86 103
198 3 15 7 27 10 27 2 0 11 -12 19 -27z"/>
<path d="M3022 3958 c-7 -7 -12 -18 -12 -26 0 -7 -32 -79 -71 -160 -39 -81
-80 -167 -91 -191 -14 -31 -23 -40 -28 -31 -6 9 -11 0 -15 -26 -10 -68 -21
-99 -33 -97 -6 2 -9 -3 -6 -11 6 -17 -45 -128 -56 -121 -5 3 -12 0 -16 -6 -4
-8 -3 -9 4 -5 18 11 14 -9 -9 -48 -19 -32 -22 -34 -50 -24 -16 5 -64 30 -106
54 -43 24 -84 44 -91 44 -31 0 8 -26 115 -77 107 -51 116 -54 132 -38 20 17
51 83 131 275 28 69 69 161 90 205 22 44 53 114 70 155 18 41 38 90 46 108 15
35 15 39 -4 20z"/>
<path d="M2381 3106 c-67 -37 -68 -146 -2 -181 62 -31 115 -14 145 49 23 49
20 71 -15 111 -25 28 -38 35 -68 35 -20 -1 -47 -7 -60 -14z"/>
<path d="M1310 1710 c-150 -15 -267 -96 -388 -269 -119 -169 -156 -457 -80
-619 29 -60 32 -47 6 24 -18 49 -22 81 -22 189 -1 121 2 145 17 185 3 8 15 42
26 75 11 33 25 59 30 58 6 -2 14 12 19 30 5 17 14 31 20 30 6 -2 14 7 18 20 4
12 15 33 25 46 l19 24 0 -25 c0 -14 -7 -31 -15 -38 -8 -7 -15 -19 -15 -26 0
-8 -4 -14 -9 -14 -9 0 -14 -11 -57 -130 -17 -47 -23 -58 -23 -37 -1 15 -5 27
-10 27 -5 0 -8 -20 -6 -44 3 -38 1 -44 -12 -39 -13 5 -15 1 -8 -23 4 -16 6
-72 6 -124 -1 -74 3 -108 20 -155 28 -79 34 -90 82 -142 45 -49 92 -78 109
-67 6 4 8 3 5 -3 -11 -18 78 -36 156 -31 83 5 119 22 195 86 50 43 112 115 83
97 -9 -5 -12 -3 -9 6 3 8 10 13 15 12 6 -1 21 9 33 22 13 14 18 25 11 25 -8 0
-7 9 5 31 11 23 12 29 2 23 -7 -4 -9 -3 -5 1 15 17 39 14 33 -3 -14 -40 48 49
78 113 51 107 79 226 71 305 -11 112 -30 159 -91 227 -12 12 -26 23 -33 23 -6
0 -11 4 -11 8 0 4 -16 14 -36 21 -19 7 -33 15 -31 18 11 11 99 -38 133 -74 20
-21 31 -29 26 -18 -31 60 -137 127 -231 144 -34 7 -68 14 -75 15 -6 2 -40 0
-76 -4z m205 -124 c37 -3 64 -17 90 -47 11 -12 14 -19 8 -15 -20 11 -15 -1 12
-30 14 -15 25 -34 25 -43 0 -14 2 -14 9 -2 8 12 11 9 16 -12 4 -14 5 -32 2
-39 -3 -7 -6 -2 -6 11 -1 13 -4 21 -8 17 -4 -4 -6 -25 -4 -47 1 -22 -2 -45 -7
-52 -9 -11 -12 -33 -31 -192 -7 -59 -28 -115 -64 -167 -10 -16 -16 -32 -12
-37 3 -5 0 -13 -6 -17 -8 -5 -9 -3 -4 7 8 12 6 12 -8 0 -19 -15 -23 -36 -5
-25 7 4 8 3 4 -5 -4 -6 -11 -9 -16 -6 -11 7 -35 -35 -32 -55 2 -10 0 -11 -5
-3 -6 8 -26 -6 -63 -44 -30 -31 -55 -60 -55 -66 0 -6 -7 -12 -15 -14 -13 -4
-13 -3 0 7 12 10 12 11 -5 5 -144 -52 -230 -46 -313 22 -67 55 -76 80 -73 211
2 114 16 202 44 278 25 67 68 147 94 176 15 16 22 31 18 39 -5 7 -4 10 3 5 6
-3 38 11 72 33 33 22 73 42 88 45 15 2 43 7 63 10 24 4 43 16 58 37 21 28 27
30 60 25 20 -4 50 -8 66 -10z"/>
<path d="M3345 1819 c-126 -12 -212 -58 -263 -142 -46 -76 -50 -96 -47 -258 1
-113 6 -158 22 -209 81 -255 255 -429 465 -466 73 -13 88 -13 138 2 112 32
178 96 229 221 21 51 16 185 -12 318 -20 96 -33 135 -67 195 -24 41 -46 77
-49 80 -22 17 -69 89 -63 95 4 5 1 5 -5 1 -7 -4 -13 -2 -13 3 0 6 -7 11 -15
11 -8 0 -15 5 -15 10 0 6 -6 10 -14 10 -8 0 -16 3 -18 8 -4 10 -101 58 -111
54 -5 -1 -5 3 -1 9 4 8 0 9 -16 4 -15 -5 -20 -3 -16 3 4 6 -1 11 -11 10 -22 0
-97 12 -102 18 -2 2 28 4 68 4 45 0 70 -4 66 -10 -3 -6 1 -7 9 -4 9 3 16 2 16
-4 0 -5 7 -13 16 -16 9 -4 13 -2 8 5 -4 7 -1 10 7 7 8 -3 13 -10 12 -16 -2 -6
4 -9 11 -6 8 3 35 -6 60 -21 62 -36 171 -139 162 -154 -4 -6 -1 -11 6 -11 8 0
14 -9 15 -19 2 -25 33 -72 43 -66 9 6 50 -99 50 -130 0 -13 5 -27 11 -31 6 -3
9 -17 6 -30 -2 -14 0 -27 5 -30 5 -3 6 -14 3 -24 -3 -10 -1 -21 4 -24 10 -7 8
-125 -4 -168 -4 -17 -3 -28 3 -28 14 0 24 62 23 157 -1 93 -3 108 -36 210 -50
152 -174 306 -304 376 -85 46 -178 65 -276 56z m120 -148 c22 -11 57 -37 79
-60 21 -23 44 -41 50 -41 24 0 151 -149 174 -203 6 -15 21 -80 32 -145 17 -91
20 -137 14 -207 -8 -111 -28 -152 -90 -194 -43 -28 -55 -31 -125 -31 -103 0
-131 14 -232 115 -16 17 -35 29 -41 27 -6 -2 -8 0 -4 4 4 3 -11 27 -32 52 -57
64 -139 237 -144 304 -1 3 -4 10 -8 14 -5 4 -8 27 -8 50 0 24 -4 46 -10 49 -5
3 -10 17 -10 31 0 14 -5 34 -11 45 -15 28 15 114 52 147 65 60 231 82 314 43z"/>
<path d="M2954 1468 c0 -92 -15 -212 -35 -270 -16 -48 -18 -66 -9 -92 16 -49
50 -84 120 -125 39 -23 64 -44 62 -52 -2 -8 0 -11 4 -6 4 4 21 -5 37 -20 l29
-28 -21 35 c-11 19 -30 53 -42 75 -12 22 -30 52 -40 66 -10 14 -21 38 -25 53
-3 15 -9 25 -12 22 -3 -3 -11 -1 -18 5 -10 8 -10 3 -1 -27 6 -20 13 -31 15
-25 2 7 20 -13 39 -44 18 -32 31 -60 28 -63 -3 -4 -10 -1 -14 7 -5 7 -11 12
-15 12 -19 -3 -25 2 -36 29 -7 17 -17 30 -22 30 -5 0 -6 -5 -2 -12 4 -7 3 -8
-5 -4 -6 4 -9 12 -6 17 4 5 1 9 -5 9 -7 0 -9 7 -6 16 3 8 2 13 -3 10 -15 -9
-20 20 -14 73 6 55 27 74 38 34 3 -14 8 -23 10 -21 2 2 -3 26 -11 53 -8 28
-18 103 -21 168 -3 64 -9 117 -12 117 -4 0 -7 -19 -7 -42z"/>
<path d="M3643 2988 c-50 -105 -56 -164 -22 -237 19 -42 21 -44 37 -27 13 13
16 31 14 79 -6 107 -6 151 -1 176 5 31 -14 38 -28 9z"/>
</g>
</svg>
